<svg width="448" height="448" viewBox="0 0 448 448" fill="none" xmlns="http://www.w3.org/2000/svg">
<path fill-rule="evenodd" clip-rule="evenodd" d="M48 0C21.4902 0 0 21.4904 0 48V400C0 426.51 21.4902 448 48 448H400C426.51 448 448 426.51 448 400V48C448 21.4904 426.51 0 400 0H48ZM34.3591 226.503L35.6958 227.176V227.008C37.7007 228.017 38.3691 230.373 37.7007 232.392C37.0325 234.748 36.6982 237.103 36.6982 239.459L37.0325 251.237C37.1995 252.92 37.8677 254.603 39.2043 255.949C40.0398 256.958 40.207 258.809 39.2043 259.987L37.5337 262.006C37.5337 262.847 37.8677 264.193 39.2043 264.53C40.8752 265.035 42.5461 266.213 44.2168 267.895L45.5535 269.578C46.5559 271.597 45.8877 273.784 44.2168 274.962L43.0474 275.804C39.8728 277.654 38.3691 281.524 39.3716 285.394C40.374 289.769 41.2095 294.144 41.5435 298.519L42.0449 304.576C42.0449 307.268 43.3816 309.792 45.3865 311.812C47.3914 313.662 48.2268 316.186 48.2268 319.047L47.8926 326.45C47.8926 329.816 49.2292 333.013 51.5684 335.2C54.0747 337.387 56.915 339.07 60.7581 340.248C63.9326 341.089 66.2717 344.118 66.6057 347.483V348.829C66.7729 351.858 67.6084 354.718 68.9451 357.242C70.2817 359.934 71.9524 362.122 75.2942 364.477C78.3015 366.497 81.6431 367.843 84.9849 368.516L89.6631 369.525C93.3389 370.198 96.3464 372.386 98.3513 375.246C100.858 378.443 103.531 380.967 107.541 382.65C111.551 384.501 115.561 385.174 119.905 384.837H122.244C122.669 384.757 123.094 384.681 123.522 384.604C125.785 384.2 128.122 383.782 130.932 382.65C132.603 381.977 134.441 382.65 135.444 384.332C136.613 386.015 138.284 387.361 139.955 387.698L143.798 388.539C144.8 388.707 145.468 389.044 146.471 389.044L156.496 390.726C159.67 391.063 162.678 392.409 165.184 394.092L167.356 395.774L171.032 398.466L173.371 400.485L180.054 406.879C182.059 409.403 185.067 410.581 188.408 411.086H193.755C196.094 411.422 197.932 412.769 198.767 414.451C199.937 416.302 201.775 417.648 203.78 418.321L208.291 419.331C211.299 420.172 214.306 420.509 217.648 420.172L219.82 419.835C221.491 419.667 223.161 420.004 224.832 420.845C226.169 421.686 227.84 422.528 229.51 422.528L232.184 423.369C235.692 424.21 239.368 424.21 242.71 423.369L247.722 421.686C249.895 421.013 251.899 419.667 253.57 417.312C254.573 415.629 256.912 414.956 258.583 415.629C260.755 416.639 262.927 417.312 265.266 417.312L267.939 417.648C271.448 417.816 275.291 417.48 278.632 416.639C281.974 415.629 284.48 413.61 286.151 410.581L288.323 406.879L289.326 404.86L290.328 403.178C291.498 401.495 293.168 400.485 294.839 400.485H297.179C300.688 400.485 304.196 400.149 308.206 398.803C311.547 397.962 314.388 395.774 316.56 392.914L317.229 391.904C318.26 390.553 319.165 389.074 320.099 387.545C320.678 386.599 321.268 385.634 321.907 384.669L322.742 383.659C323.41 381.977 324.079 380.126 324.413 378.107C324.58 376.256 324.914 374.068 325.416 372.386C325.917 370.367 327.42 369.021 330.428 369.021C332.934 369.021 335.774 367.674 337.946 365.992L339.116 364.982C341.288 362.795 343.293 360.271 345.298 356.906C346.301 355.223 348.473 354.214 350.645 355.223C352.315 355.896 353.986 354.55 354.32 352.531C354.989 350.175 355.991 348.156 357.662 346.474C359.166 344.791 360.335 342.94 361.505 340.248C362.507 338.229 364.68 336.546 367.019 336.546H376.041C378.547 336.546 380.886 334.863 381.555 331.835C382.223 329.479 383.56 327.123 385.23 325.104C386.734 323.422 388.739 321.739 391.079 320.056C393.417 319.047 395.59 317.196 397.26 315.009L399.767 311.643C400.769 310.634 401.438 308.951 401.438 307.268C401.438 305.754 402.273 304.24 403.442 303.567L405.949 301.884C408.121 300.706 409.792 299.024 410.961 296.836C411.964 294.817 412.966 292.63 413.634 290.106V288.76C414.47 285.731 414.47 282.366 413.634 279L413.133 276.645C412.632 275.13 413.3 273.448 414.303 272.438C414.817 271.833 415.508 271.273 416.285 270.643C417.021 270.046 417.834 269.387 418.647 268.568C420.318 267.054 421.654 265.203 422.49 263.184L422.824 262.006C423.994 259.314 424.328 255.949 423.659 252.583C423.325 249.723 422.49 247.031 421.153 244.675C419.983 242.151 419.816 239.291 420.652 236.262C421.654 233.402 421.989 230.205 421.989 227.176V225.83C421.989 221.96 421.487 218.09 419.816 214.388C418.48 210.518 416.141 207.658 412.799 205.47L409.458 202.946C408.455 202.273 407.62 201.095 407.285 199.918C406.784 198.571 406.784 197.225 406.784 195.879V192.009C406.784 188.644 406.617 185.279 405.949 181.072C405.615 178.38 404.278 175.688 401.939 174.005C400.268 172.323 398.597 169.967 398.597 167.275L398.096 163.405C398.096 161.386 398.764 159.703 399.767 158.357C401.104 157.011 401.438 154.992 401.438 153.309V149.944C401.271 147.42 400.101 145.233 397.595 143.55C396.091 142.372 395.255 140.185 395.59 138.502L395.924 135.137L397.093 127.229C397.428 124.368 396.258 121.844 394.086 120.162L392.415 118.984C391.246 118.311 390.744 116.965 390.744 115.282C390.912 113.936 390.744 112.253 390.076 110.571L385.732 100.811L384.061 97.4462C382.892 95.2588 380.887 93.5762 378.547 93.5762L375.206 93.2397C372.532 93.2397 370.527 90.884 370.527 88.1918C370.694 84.8266 369.692 81.6296 367.687 79.2739L366.016 77.0865C364.345 75.4039 362.507 73.7213 360.335 72.0387C358.331 70.8608 355.824 70.3561 353.318 70.3561H342.959C340.62 70.3561 338.281 69.1782 337.278 66.9908C335.607 64.6352 333.937 62.4478 332.266 60.7652L331.43 59.9239C329.425 57.4 326.083 55.7173 322.742 55.3808L315.558 54.2029C311.715 53.6982 307.872 54.2029 304.196 55.3808C300.688 56.7269 296.844 56.3904 293.168 54.7078C289.326 53.0251 285.483 52.3521 281.473 52.3521H271.615C269.276 52.5203 266.937 51.8473 265.266 50.1647L263.595 48.4821C261.256 46.7994 259.251 44.2755 257.58 41.7516C255.909 39.3959 253.403 37.545 250.563 36.7037L247.89 35.8624C245.216 35.0211 243.211 32.4972 242.877 29.132C242.71 28.6272 242.543 28.2906 242.042 27.9542C241.373 27.2811 240.204 27.4493 239.703 28.2906C238.032 30.3098 235.525 31.3194 233.019 30.6464L230.513 29.9733C226.837 29.132 223.161 28.6272 219.485 28.6272H217.815C214.974 28.6272 212.468 27.9542 209.461 26.2715C207.456 25.262 205.284 24.4207 203.112 24.0841C200.939 23.7476 198.935 24.4207 197.264 26.1033L190.079 33.675L188.575 34.5164C187.74 35.6942 186.069 36.0307 184.398 35.3577L182.728 34.5164C180.054 33.3385 177.381 32.4972 174.039 32.4972L167.356 31.9924C165.351 31.8242 163.012 32.1607 161.341 32.6655C159.336 33.1703 157.665 34.3481 155.995 36.0307L152.653 40.069C150.982 42.0881 148.977 43.7708 146.805 45.1168L143.129 47.3043L130.431 54.5395C126.588 57.0634 123.748 60.9334 122.578 66.3178C121.743 70.6926 119.07 74.0579 114.725 76.4135C111.384 78.0961 108.543 80.2835 106.037 83.144C103.698 85.6679 102.027 89.3696 101.359 94.081C100.69 97.951 97.6831 100.475 94.0073 100.475H88.6606C85.8203 100.475 82.8127 100.811 79.137 102.158C77.4661 102.999 75.127 101.989 74.1245 99.9702L73.4563 98.7923C72.7878 97.4462 71.2842 96.6049 69.1121 96.6049C68.2766 96.9414 67.9424 98.1193 68.2766 99.1288L70.2817 103.504C71.2842 105.859 70.6157 108.888 68.9451 110.571L62.9299 117.301L60.7581 120.162C59.5884 121.508 57.9175 121.844 55.2444 120.835C54.4089 121.003 54.0747 121.508 54.4089 123.19C54.5759 124.2 54.4089 125.546 53.5735 126.555C52.905 127.902 52.0698 128.743 51.2344 129.584L47.2244 132.613C43.8828 135.642 41.7107 139.848 41.7107 144.391L41.3765 150.112C41.2095 152.131 40.0398 153.814 38.3691 154.319C36.364 154.992 34.5261 156.001 33.3567 157.684L31.6858 159.871C29.3467 162.563 28.3442 166.265 28.3442 169.967L28.8455 171.986C28.8455 175.351 29.5137 178.717 30.5161 182.082L31.3516 184.774C31.6858 186.12 31.5186 187.634 30.5161 188.812C30.2935 189.126 30.0591 189.44 29.8223 189.757C29.1702 190.63 28.5002 191.527 28.01 192.514L26.6733 195.038C25.1697 197.898 24.3342 200.927 24.3342 204.292L24 206.48C24 210.686 25.0024 214.725 27.3416 219.099C29.0125 222.296 31.3516 224.82 34.3591 226.503ZM201.107 200.759C202.109 201.6 202.276 203.788 201.107 204.965L201.274 205.134L200.104 206.48C198.6 208.331 195.927 208.499 194.256 207.153L193.922 206.816C191.75 204.629 189.077 203.115 186.236 202.273L181.558 200.927C178.551 200.422 175.877 198.571 174.207 195.879C172.536 193.187 169.862 191.504 166.855 191.504H165.852C162.511 191.168 159.503 188.981 158.167 185.279L157.331 182.587C155.995 179.221 153.655 176.193 150.648 174.174C147.64 172.491 145.802 169.126 145.301 165.76V162.732C144.633 159.03 142.962 156.001 140.289 153.982C137.448 151.963 136.279 148.598 136.947 145.232L137.783 141.867C138.451 139.512 139.955 137.661 142.294 136.819C143.965 136.146 145.635 134.127 145.635 131.772V122.854C145.802 120.666 145.301 118.479 144.466 116.46C143.63 114.609 143.965 112.422 145.301 110.739L146.137 109.393C148.142 107.037 149.144 103.672 149.478 100.307V98.624C149.812 94.5858 151.483 91.0522 154.825 88.8649C158.334 86.6775 161.174 83.6487 162.845 79.947L164.182 77.7596C165.852 74.0579 168.86 71.3657 172.536 70.1878L177.548 68.5052L179.219 68.0004L185.234 66.3178C187.239 65.6448 188.91 63.6256 188.91 61.27C189.077 58.9143 190.748 57.2317 192.92 57.2317L207.122 55.5491C208.446 55.5491 209.789 55.5124 211.144 55.4753C213.891 55.4002 216.688 55.3237 219.485 55.5491L226.837 56.0538C229.51 56.2221 231.181 58.746 231.181 61.6064C231.181 62.1113 231.014 62.7843 230.68 63.2891L229.51 65.4765C228.577 67.5912 227.318 69.6239 226.075 71.6318C225.537 72.4996 225.002 73.3629 224.498 74.2261L223.663 75.0674C222.159 77.2548 221.323 79.6105 221.323 82.3027C221.323 84.4901 219.987 86.6775 217.982 87.3505L213.471 89.0331C209.795 90.2109 206.62 92.3984 204.114 95.7636L203.446 96.4366C201.274 99.1288 200.104 102.494 199.603 105.859L199.269 108.215C198.935 109.898 199.436 111.58 200.271 113.263C201.107 114.609 200.939 116.292 199.937 117.301L198.935 118.311L197.264 120.33L194.925 122.854C192.92 125.209 191.416 127.902 190.413 130.93L189.244 134.296C188.575 136.315 188.91 137.997 189.912 139.68C190.915 141.362 191.249 143.55 190.58 145.232V145.569C190.079 148.093 189.077 150.112 187.74 152.299C186.403 153.982 185.902 156.17 186.403 158.189V159.198C186.738 160.881 187.406 162.563 188.074 163.91C189.077 165.592 189.745 167.275 189.745 168.957V169.63C189.745 171.65 189.077 174.005 188.074 175.688L187.072 177.37C186.236 179.053 186.236 180.736 187.072 182.418C188.074 184.438 189.244 186.12 190.915 187.466L191.249 187.803C192.92 189.485 194.423 191.336 195.593 193.524L197.264 196.216C198.266 197.898 199.436 199.413 201.107 200.759ZM224.164 188.476C223.496 189.99 221.825 190.495 220.154 189.485L219.82 189.149L219.485 188.812C218.149 188.139 217.146 186.457 217.146 184.774C216.979 183.091 217.313 181.409 217.815 179.726C218.316 177.707 218.149 176.024 217.313 174.342L215.643 170.64C214.974 168.957 214.974 167.275 215.977 165.592C216.812 163.91 217.648 162.059 217.648 160.04L218.149 154.655C218.316 152.973 217.982 151.29 216.979 149.607C216.144 148.43 216.812 146.915 217.815 146.242H218.149L219.151 145.737C221.323 144.896 222.994 142.877 223.663 140.353L224.331 137.492C224.832 134.969 225.167 132.445 224.832 129.584C224.498 127.565 226.169 125.714 227.84 125.378H228.174H230.68C233.186 125.378 235.191 124.032 236.862 122.012C238.533 119.825 239.703 117.469 240.204 114.777L240.872 110.907C241.541 107.878 243.712 105.523 246.553 105.018H248.558C250.563 104.513 252.568 104.513 254.573 104.513L255.241 104.177C257.413 104.177 259.585 103.335 261.256 101.653V101.316C262.927 100.138 264.598 98.9606 266.269 98.9606H266.603C268.273 98.624 269.777 97.7827 271.114 96.6049C272.283 95.4271 273.954 94.5858 275.625 94.5858L284.647 94.081C286.986 93.7444 289.326 92.3984 290.997 90.7158L291.832 89.7062C292.834 88.5283 294.171 88.1918 295.842 88.8649C297.346 89.5379 298.682 90.2109 300.019 91.2205L301.69 92.3984C303.862 94.081 306.535 95.2588 309.375 95.2588L312.049 95.5953C315.391 95.9318 318.732 95.4271 322.074 94.2493L324.079 93.5762C325.75 93.0714 327.587 94.081 328.423 95.7636C329.091 97.7827 330.094 99.8019 331.263 101.484L331.932 102.326C333.435 104.345 335.607 105.691 338.114 106.028H345.131C347.47 106.028 349.308 107.71 350.144 109.898C350.812 112.422 351.814 114.945 353.485 116.628L355.156 118.311C356.827 120.498 359.166 122.012 361.839 122.854H363.176C364.513 123.359 365.181 124.873 364.847 126.219V127.06C364.011 128.743 364.011 130.425 364.847 132.108L365.181 132.949C365.337 133.292 365.494 133.638 365.652 133.987C366.505 135.87 367.395 137.835 368.522 139.68L369.692 142.372C370.527 143.718 370.861 145.401 370.861 147.083C370.861 148.261 370.026 149.103 368.689 149.103H366.685C363.844 148.766 361.004 147.925 358.331 147.083L355.49 145.906C353.318 145.232 351.146 144.559 348.807 144.559H347.136C346.301 144.559 345.465 145.064 344.964 145.569C344.463 146.41 343.627 146.747 342.792 146.747H339.952C337.612 146.747 334.939 145.401 333.268 143.718L332.767 143.045C330.595 140.521 327.754 139.343 324.413 138.839H322.742C319.4 138.67 316.393 138.67 313.051 139.343H312.717C309.709 139.68 306.869 141.026 304.363 142.709L303.193 143.382C301.522 144.728 299.351 144.896 297.68 143.718C295.675 142.54 293.503 142.54 291.498 142.54L288.156 142.877C285.148 143.213 282.141 144.055 279.468 145.232L277.797 145.906C276.126 146.747 274.623 147.925 273.62 149.607C272.618 151.29 270.947 152.131 268.942 152.131H263.929C262.068 152.131 260.208 152.421 258.213 152.732L257.747 152.804C256.077 153.646 254.406 154.487 252.735 156.169L251.899 157.179C249.895 159.03 248.892 161.217 248.224 163.573C247.221 165.76 245.383 166.938 243.211 166.938C240.872 166.938 238.867 168.116 237.196 169.799L233.186 175.183C233.019 175.52 232.852 175.856 232.351 175.856L229.009 180.904C227.338 182.923 225.834 185.279 224.665 187.634L224.164 188.476ZM358.331 312.148C356.326 313.494 353.819 312.821 352.148 311.139L351.814 311.307L350.812 309.624C349.977 308.446 349.977 306.764 350.812 305.586C351.647 304.408 352.148 303.062 352.482 301.379V296.331C352.482 293.303 351.814 290.442 350.144 287.918C348.473 285.731 346.301 283.88 343.794 282.87L342.625 282.029C340.453 281.356 339.784 279 340.453 276.981C341.288 274.626 341.79 272.102 341.79 269.578V268.4C341.79 265.203 340.62 262.006 338.448 259.482L337.612 258.304C335.941 256.285 333.77 254.603 331.597 253.256L330.762 252.92C328.924 251.91 326.919 251.237 325.248 250.901C323.41 250.228 322.241 248.545 322.241 246.863V246.021C322.241 243.329 322.074 240.805 321.572 238.281L321.071 235.926C320.57 234.243 319.734 232.56 318.398 230.878C317.229 229.195 315.558 228.186 313.887 227.512L312.717 227.008C309.877 226.166 307.037 225.83 304.363 225.83H303.36C301.69 225.83 300.019 224.484 300.019 222.465V221.96C300.019 220.277 299.184 218.258 298.348 216.912C297.346 215.229 296.009 214.052 294.338 213.547L292.667 213.21C290.328 212.369 287.822 211.864 285.316 211.528C282.81 211.191 280.638 210.518 278.632 208.835C276.627 207.153 274.456 206.311 271.949 205.47C269.61 204.797 267.271 204.797 264.932 204.797L260.755 205.302C259.251 205.47 257.747 204.965 256.745 204.124C255.575 203.451 254.071 202.946 252.735 203.451L250.229 204.461C248.224 204.965 246.219 204.461 245.216 202.778C244.046 201.095 244.046 199.076 245.216 197.394L247.221 195.375C248.892 192.851 251.231 191.168 253.904 190.327L254.74 189.99C256.912 189.317 259.251 188.307 260.922 186.625C262.76 185.111 264.932 184.269 266.937 183.764L271.448 183.091C273.954 182.587 276.293 181.745 278.465 180.399C280.136 179.053 282.643 178.212 285.148 178.212H290.663C293.001 178.044 295.341 177.37 297.346 176.024L298.014 175.52C299.685 174.51 301.355 174.174 303.026 174.174C304.864 174.174 306.869 174.678 308.54 175.52L310.211 176.193C313.051 177.539 316.059 177.875 319.066 177.875H321.74C322.742 177.539 323.745 178.38 323.745 179.558V180.567C322.742 182.587 322.742 184.942 323.41 186.961C323.912 188.307 325.081 188.981 326.251 188.644L327.253 187.971L329.425 185.615C330.762 184.269 332.767 183.933 334.104 184.942C335.941 186.12 338.114 186.961 339.784 187.298L343.126 187.803C345.632 188.139 348.139 189.822 349.809 191.504C351.981 193.524 353.652 195.543 355.323 197.898L359.667 202.946L363.009 206.816L364.345 208.499C366.685 210.855 369.358 211.864 372.7 211.864H373.034C375.707 211.864 378.046 214.052 378.046 216.912V217.417L377.712 225.83C377.712 228.859 378.213 231.887 379.048 234.916L379.55 235.926C380.051 237.945 381.722 239.291 383.393 240.132C384.896 240.132 385.732 241.815 385.397 243.497L385.063 243.834V244.507C384.395 246.189 383.56 247.872 382.39 249.218C381.388 250.901 380.719 252.583 380.719 254.266L381.221 259.314L381.722 264.025C381.889 265.54 382.223 266.717 382.892 268.4L383.226 269.073C383.894 270.756 384.228 272.438 383.894 274.121C383.56 275.804 382.892 277.318 381.889 278.664V279L378.547 283.375L377.211 284.553C376.375 285.731 375.54 287.077 375.54 288.76C375.54 290.106 374.705 291.452 373.368 291.788L372.7 292.125C371.029 292.63 370.026 293.639 369.358 294.985L368.689 296.163L368.021 297.846L367.019 299.528L365.348 304.576V304.913C364.68 307.1 363.343 308.783 361.672 309.961L358.331 312.148ZM244.882 224.989H245.216L245.717 225.83C246.72 226.166 247.89 226.839 248.391 227.849L248.892 228.69C248.892 229.532 249.895 229.532 250.563 229.532C250.73 229.363 251.231 229.195 251.231 228.859L251.899 227.849C252.568 226.166 254.573 225.662 255.909 226.166L260.922 229.532L263.094 231.214C265.266 232.897 266.269 235.589 265.934 238.281C265.6 239.123 266.269 239.964 267.271 239.964C267.772 240.132 268.106 239.964 268.44 239.459L270.111 237.776C271.114 236.767 272.785 236.767 273.787 238.113H274.121C275.291 239.291 276.961 240.637 278.632 240.973L283.979 242.656L286.652 243.497C287.655 244.002 288.323 244.675 288.323 245.685L288.824 248.545C289.326 250.901 289.994 253.256 291.331 254.939C292.667 256.958 294.338 258.473 296.009 259.482L297.179 259.819C299.518 261.501 301.188 263.689 301.522 266.549L301.857 269.073C302.191 270.251 302.191 271.429 302.191 272.438L302.525 275.804C302.859 278.832 304.196 281.861 306.535 283.88L309.375 286.404C311.046 287.75 311.213 290.106 309.877 291.788C308.54 293.808 307.371 295.995 306.535 298.182V299.024C305.7 301.884 305.7 304.745 306.034 307.437V308.11C306.368 310.465 307.204 312.821 308.875 314.504C310.211 316.018 310.211 318.205 309.208 319.888L307.538 322.076C307.085 322.597 306.707 323.093 306.356 323.554C305.8 324.283 305.312 324.925 304.697 325.441L303.36 327.123L300.019 332.171C299.017 333.854 298.348 336.041 298.014 337.724V348.661V348.997C298.181 351.69 296.176 354.214 293.503 354.718H292.166C289.827 354.886 287.655 355.728 285.483 357.41C283.812 359.093 282.141 360.944 280.47 363.131C278.799 365.319 277.797 367.843 277.129 370.367C276.46 372.722 274.456 374.405 272.116 374.741L266.102 375.246C264.096 375.246 261.757 375.751 260.086 376.929L258.75 377.77L256.077 379.453L251.899 382.313C250.73 383.323 249.56 384.501 249.059 385.678C248.224 386.688 246.887 387.193 245.717 386.688L245.049 386.351C243.378 385.342 241.541 385.005 239.535 385.005H238.199C235.859 385.005 233.688 385.342 231.516 386.015L230.179 386.351C228.842 386.856 227.84 387.529 226.837 388.539C226.002 389.38 224.665 389.717 223.83 389.38L221.825 388.707C219.485 387.698 216.812 387.361 213.972 387.698L211.466 388.034C209.293 388.202 206.954 388.034 204.782 387.193H204.448C202.443 386.688 200.772 385.847 199.102 384.669C197.431 383.828 195.426 382.986 193.755 382.986L190.079 382.313C188.074 382.313 186.236 380.967 185.067 378.948C184.565 377.938 184.733 376.929 185.401 376.256H186.905L192.418 376.929L198.433 378.107C201.775 378.611 204.782 377.602 206.787 375.246L209.293 372.554L211.8 370.03L213.972 367.506C216.311 365.319 217.48 362.458 217.982 359.093L218.817 353.54C219.151 351.69 220.154 350.175 221.825 349.502L226.837 346.978L228.842 345.632C231.85 343.949 234.356 341.594 236.361 338.902H236.695C238.7 335.536 240.204 332.171 241.039 328.806L242.376 322.749C242.877 321.066 244.046 319.72 245.717 319.047C247.054 318.374 248.224 317.364 249.059 315.682L250.229 313.662C251.899 310.634 252.902 307.605 253.57 304.24L254.239 299.697C254.406 298.014 254.239 296.331 253.737 294.649V294.312C253.236 292.966 252.735 291.452 252.735 290.106C252.735 288.928 253.236 287.582 254.406 287.582L256.077 287.245C258.082 286.909 259.418 285.058 259.418 282.87L258.917 273.616C258.75 271.26 258.082 268.905 256.411 266.886L255.575 266.044C254.573 264.698 254.239 263.016 254.573 261.333V252.92C254.406 249.891 252.902 246.863 250.396 244.843H249.728C247.722 243.161 246.386 240.805 246.052 238.113C245.717 235.421 245.383 232.729 244.715 230.036L244.046 226.671C243.879 225.83 244.214 224.989 244.882 224.989ZM224.331 240.973L225.167 241.815L225.333 242.319L226.002 244.339C226.503 246.021 226.837 248.209 226.503 249.891V255.612L226.837 257.968C226.837 259.65 227.505 261.333 228.508 262.679C229.51 263.857 229.51 265.876 228.842 267.222L227.171 269.578C225.834 271.597 224.999 273.616 224.164 275.972C223.329 278.159 223.496 280.683 224.665 282.366L225.167 283.544C226.503 285.899 226.169 289.265 224.164 290.947L223.83 291.284C221.323 293.471 219.653 296.836 218.817 300.202L217.815 304.24C216.812 307.268 214.64 309.792 211.8 310.97L209.795 311.812C208.124 312.485 206.453 313.494 204.782 315.177C203.279 316.859 202.276 318.879 202.276 321.066L201.608 324.431C201.274 327.796 198.266 330.825 194.925 331.162H188.241C186.236 331.162 184.064 332.003 182.393 333.686L177.381 338.229L176.378 338.902C174.039 340.753 171.533 342.099 168.526 343.108C166.02 344.286 163.179 344.623 160.172 344.286L153.99 343.949C151.817 343.781 149.812 343.949 147.808 344.791C145.97 345.464 143.798 345.127 142.127 343.445C140.623 341.93 139.955 339.911 139.955 337.724V334.863C140.289 334.19 139.453 333.517 138.618 333.181L137.783 333.517C136.446 334.19 135.778 335.873 135.778 337.556V343.445C135.945 344.959 134.775 346.137 133.438 346.137H132.102C129.596 344.454 126.922 343.613 124.249 342.772L116.73 341.089C114.558 340.248 112.887 338.229 112.887 336.041V335.2C112.887 334.19 112.219 333.517 111.217 333.517L110.381 333.854C109.045 334.863 107.04 334.695 105.703 333.517L100.69 328.806C98.6855 327.123 96.1792 326.282 93.6731 326.282C90.9998 326.282 88.9949 324.936 87.6582 322.58L85.1519 318.037C83.8152 315.85 82.1445 314.167 80.4736 312.485C80.061 312.069 79.6282 311.654 79.1902 311.233C77.8535 309.951 76.4678 308.621 75.4612 307.1L74.4587 305.754C73.2891 304.072 73.1221 302.389 73.9575 300.706C74.7927 299.024 74.96 297.005 74.4587 295.322L73.7903 291.957C73.1221 289.938 74.4587 287.75 76.4636 287.245H78.6357C80.6406 287.245 82.6458 287.582 84.3164 288.928C85.9873 289.938 88.1594 290.442 89.8301 289.938L99.1868 287.582L101.526 286.572C102.361 286.404 103.197 286.572 103.698 286.909L107.875 291.957L107.876 291.958C109.046 293.135 110.215 294.313 111.885 295.322L112.26 295.533C113.615 296.298 114.865 297.005 116.396 297.005L127.257 298.351C130.264 298.687 133.438 297.509 135.611 294.985L137.281 292.798C138.284 291.62 139.621 291.115 141.291 291.62L145.802 292.798L147.473 293.135C150.314 293.808 153.154 293.807 155.827 293.471L159.503 293.135C162.01 292.798 164.516 291.115 166.187 288.591C167.857 286.068 170.197 284.385 172.87 284.385L181.224 283.544C184.231 283.207 187.239 282.029 189.244 279.842L190.915 278.496C192.251 277.15 193.254 275.467 193.254 273.784C193.588 271.765 194.925 270.587 196.595 270.083L197.932 269.746C200.438 268.905 202.945 267.391 204.615 265.203L205.618 264.193C207.456 261.838 208.458 258.809 208.458 255.78C208.458 253.425 210.296 251.406 212.635 251.406H212.969H214.64C216.645 251.742 218.65 250.228 219.151 248.04V247.704C219.653 245.516 220.655 243.329 221.825 241.31C222.66 240.469 223.496 240.3 224.331 240.973ZM201.274 228.522V229.027L201.608 228.859C201.274 230.878 200.438 232.56 198.767 234.243L196.094 236.935C194.925 237.945 194.089 239.291 193.588 240.973C193.087 242.488 191.917 243.666 190.58 243.666L187.239 244.339C185.234 244.675 183.563 246.021 182.728 247.704C181.892 249.386 180.054 251.069 178.049 251.069H170.531C168.526 251.237 166.521 251.91 165.184 253.593L164.349 254.434L161.508 257.126H161.174C160.339 258.473 158.668 258.809 156.997 258.809L149.144 258.304C146.972 258.304 144.8 258.977 143.129 260.323C141.458 261.501 139.286 261.838 137.281 260.997H136.78C136.168 260.74 135.54 260.499 134.916 260.259C133.496 259.713 132.093 259.174 130.932 258.473C129.094 257.295 126.922 256.79 125.251 256.79H122.745C120.573 256.79 118.401 256.958 116.396 257.463C114.391 257.968 112.386 257.126 111.05 255.444L110.381 254.771C108.71 252.415 106.705 250.228 104.7 248.545C102.696 246.526 100.356 245.012 97.6831 244.17L94.3413 243.161C94.0073 242.824 93.5059 242.824 93.5059 242.824L90.8328 241.983C89.1619 241.478 87.491 239.796 87.491 237.776L85.8203 230.205C85.4861 228.69 84.6506 227.344 83.481 226.335L82.8127 225.662C82.1445 225.325 81.3091 224.652 80.8079 223.979L79.137 222.633C77.9019 221.545 76.0962 220.456 74.5107 219.5L74.1245 219.268L70.4487 217.585C69.2791 217.08 68.4438 215.902 68.4438 214.556C68.4438 213.042 68.4438 211.528 68.7778 210.182L70.4487 200.759V200.422L70.783 198.74C71.1169 197.562 71.7854 196.552 72.7878 196.216L74.4587 195.375C74.96 195.375 75.4612 194.365 74.96 193.692C74.7927 193.187 74.6257 192.851 74.1245 192.851L73.4563 192.514L66.4387 189.485C64.4338 188.476 63.5984 186.12 64.4338 183.933L64.7678 182.587C65.9375 179.221 66.4387 175.856 66.4387 172.491L66.7729 164.751C66.7729 162.732 67.9424 160.713 69.6133 159.367C71.2842 158.189 72.6208 156.338 73.4563 154.319L73.7903 153.477C74.7927 151.122 75.4612 148.598 75.7954 146.074C76.1294 143.55 77.1321 141.026 78.8027 139.343L80.4736 137.661L83.8152 134.296L84.4836 133.454C85.9873 131.603 87.324 129.752 88.1594 127.397C89.1619 125.378 90.9998 124.032 93.1719 124.032H93.6731C95.344 124.032 97.0146 125.378 97.0146 127.397V127.902V128.406C96.3464 131.94 96.3464 135.473 96.6804 139.175C96.8477 142.709 98.5183 145.906 101.192 148.093L103.531 150.28C105.035 151.795 105.87 153.814 105.87 155.833C105.87 158.189 105.703 160.376 105.035 162.563L104.7 163.573C104.032 166.433 104.199 169.294 105.035 171.986L105.369 172.996C106.538 176.193 108.71 178.885 111.217 180.904L112.052 181.409C114.224 182.923 116.396 184.269 118.735 185.279C120.74 186.12 122.244 188.307 122.745 190.663L123.414 195.206C123.414 199.749 126.254 203.115 130.097 204.797L132.102 205.638C134.775 206.985 137.615 206.985 140.456 206.985C142.962 206.48 145.469 207.826 146.638 210.35L147.473 212.032C149.311 215.734 152.319 218.426 156.329 219.604L163.847 222.128L167.189 223.138L171.199 224.147C174.875 225.157 178.551 225.83 182.393 225.83H189.912C191.249 226.166 192.92 226.166 194.59 225.83H198.935C200.271 225.83 201.274 226.839 201.274 228.522Z" fill="#28282d"/>
</svg>
